<svg xmlns="http://www.w3.org/2000/svg" width="1200" height="630" viewBox="0 0 1200 630">
  <rect width="1200" height="630" fill="#EFEBE1"/>
  <g transform="translate(150, 203.71224165341815) scale(1.5898251192368835)">

<g transform="translate(20, 20)"><path d="M68.300 78L54.100 78L48.900 63.900L19.900 63.900L14.700 78L1.200 78L26.800 10L42.700 10L68.300 78ZM34.400 23.200L32.400 30.200L23.800 53.500L45 53.500L36.400 30.200L34.400 23.200Z M87.700 78L74.900 78L74.900 24.400L87.700 24.400L87.700 32.200Q92.800 22.900 102.400 22.900L102.400 22.900Q105.900 22.900 107.600 24.400L107.600 24.400L107.600 35.500Q105.200 34.800 101.700 34.800L101.700 34.800Q94.600 34.800 91.150 38.700Q87.700 42.600 87.700 49.500L87.700 49.500L87.700 78Z M133.400 78.200L133.400 78.200Q123.200 78.200 117.300 70.800Q111.400 63.400 111.400 50.600L111.400 50.600Q111.400 37.400 117.300 30.150Q123.200 22.900 133.400 22.900L133.400 22.900Q143 22.900 148.100 29.800L148.100 29.800L148.100 24.400L160.900 24.400L160.900 79.700Q160.900 90.200 154.450 95.900Q148 101.600 137.600 101.600L137.600 101.600Q127.400 101.600 120.850 96.850Q114.300 92.100 112.900 82.800L112.900 82.800L125.800 82.800Q126.400 87 129.500 89.250Q132.600 91.500 137.400 91.500L137.400 91.500Q148.100 91.500 148.100 79.900L148.100 79.900L148.100 70.900Q142.800 78.200 133.400 78.200ZM136.300 67.600L136.300 67.600Q142.100 67.600 145.100 63.250Q148.100 58.900 148.100 50.600L148.100 50.600Q148.100 42.400 145 37.950Q141.900 33.500 136.300 33.500L136.300 33.500Q130.600 33.500 127.600 37.900Q124.600 42.300 124.600 50.600L124.600 50.600Q124.600 58.800 127.600 63.200Q130.600 67.600 136.300 67.600Z M205.500 55.500L205.500 55.500L205.500 24.400L218.300 24.400L218.300 78L205.500 78L205.500 70.800Q200.300 79.500 189.900 79.500L189.900 79.500Q181.700 79.500 176.950 74.550Q172.200 69.600 172.200 60.200L172.200 60.200L172.200 24.400L185 24.400L185 57.600Q185 68.900 194.300 68.900L194.300 68.900Q199.300 68.900 202.400 65Q205.500 61.100 205.500 55.500Z M240.300 38.800L240.300 38.800Q240.300 41.600 242.800 43.300Q245.300 45 249.050 45.550Q252.800 46.100 257.200 47.050Q261.600 48 265.350 49.300Q269.100 50.600 271.600 53.900Q274.100 57.200 274.100 62.200L274.100 62.200Q274.100 69.900 267.700 74.700Q261.300 79.500 251.200 79.500L251.200 79.500Q241.000 79.500 234.500 74.700Q228.000 69.900 226.600 60.500L226.600 60.500L239.400 60.500Q240.100 64.800 243.300 67.200Q246.500 69.600 251.600 69.600L251.600 69.600Q256.200 69.600 258.700 67.800Q261.200 66 261.200 63L261.200 63Q261.200 60.200 258.750 58.600Q256.300 57 252.600 56.450Q248.900 55.900 244.650 54.950Q240.400 54 236.700 52.700Q233.000 51.400 230.550 48.050Q228.100 44.700 228.100 39.600L228.100 39.600Q228.100 32.600 233.500 27.750Q238.900 22.900 248.900 22.900L248.900 22.900Q258.600 22.900 264.750 27.650Q270.900 32.400 272.100 42L272.100 42L259.300 42Q257.900 32.900 248.400 32.900L248.400 32.900Q244.700 32.900 242.500 34.550Q240.300 36.200 240.300 38.800Z M295.100 78L282.300 78L282.300 6L295.100 6L295.100 31.600Q300.400 22.900 311.000 22.900L311.000 22.900Q319.300 22.900 324.150 27.850Q329.000 32.800 329.000 42.300L329.000 42.300L329.000 78L316.200 78L316.200 44.900Q316.200 33.500 306.600 33.500L306.600 33.500Q301.400 33.500 298.250 37.400Q295.100 41.300 295.100 46.900L295.100 46.900L295.100 78Z M352.700 42L352.700 42L339.800 42Q341.100 33 347.350 27.950Q353.600 22.900 363.700 22.900L363.700 22.900Q374.600 22.900 380.400 28.700Q386.200 34.500 386.200 44.100L386.200 44.100L386.200 64.900Q386.200 73.500 387.800 78L387.800 78L374.500 78Q373.600 75.600 373.400 70.700L373.400 70.700Q367.200 79.500 356.000 79.500L356.000 79.500Q347.900 79.500 342.950 75.500Q338.000 71.500 338.000 64L338.000 64Q338.000 52.600 350.300 48.500L350.300 48.500Q359.000 45.600 373.300 45.400L373.300 45.400L373.300 44.100Q373.300 33.500 362.900 33.500L362.900 33.500Q358.500 33.500 355.900 35.750Q353.300 38 352.700 42ZM350.900 63.300L350.900 63.300Q350.900 66.400 353.150 68.200Q355.400 70 359.300 70L359.300 70Q365.200 70 369.250 65.800Q373.300 61.600 373.300 55.600L373.300 55.600L373.300 53.300Q360.600 53.500 355.750 56.100Q350.900 58.700 350.900 63.300Z M431.200 55.500L431.200 55.500L431.200 24.400L444.000 24.400L444.000 78L431.200 78L431.200 70.800Q426.000 79.500 415.600 79.500L415.600 79.500Q407.400 79.500 402.650 74.550Q397.900 69.600 397.900 60.200L397.900 60.200L397.900 24.400L410.700 24.400L410.700 57.600Q410.700 68.900 420.000 68.900L420.000 68.900Q425.000 68.900 428.100 65Q431.200 61.100 431.200 55.500Z M466.000 38.800L466.000 38.800Q466.000 41.600 468.500 43.300Q471.000 45 474.750 45.550Q478.500 46.100 482.900 47.050Q487.300 48 491.050 49.300Q494.800 50.600 497.300 53.900Q499.800 57.200 499.800 62.200L499.800 62.200Q499.800 69.900 493.400 74.700Q487.000 79.500 476.900 79.500L476.900 79.500Q466.700 79.500 460.200 74.700Q453.700 69.900 452.300 60.500L452.300 60.500L465.100 60.500Q465.800 64.800 469.000 67.200Q472.200 69.600 477.300 69.600L477.300 69.600Q481.900 69.600 484.400 67.800Q486.900 66 486.900 63L486.900 63Q486.900 60.200 484.450 58.600Q482.000 57 478.300 56.450Q474.600 55.900 470.350 54.950Q466.100 54 462.400 52.700Q458.700 51.400 456.250 48.050Q453.800 44.700 453.800 39.600L453.800 39.600Q453.800 32.600 459.200 27.750Q464.600 22.900 474.600 22.900L474.600 22.900Q484.300 22.900 490.450 27.650Q496.600 32.400 497.800 42L497.800 42L485.000 42Q483.600 32.900 474.100 32.900L474.100 32.900Q470.400 32.900 468.200 34.550Q466.000 36.200 466.000 38.800Z" fill="#0A0A0C"/><path d="M521.400 78L507.300 78L507.300 63.900L521.400 63.900L521.400 78Z" fill="#C8362A"/></g>
</g>
  <text x="80" y="565" font-family="Switzer, Helvetica, sans-serif" font-size="22" font-weight="500" fill="#0A0A0C" opacity="0.6" letter-spacing="3" text-transform="uppercase">SENIOR AI TALENT · GERMAN CONSULTANCIES</text>
</svg>